<svg width="40" height="40" viewBox="0 0 40 40" fill="none" xmlns="http://www.w3.org/2000/svg">
  <!-- Bouclier -->
  <path d="M20 2C24 2 27 5 28 8L35 12C36 13 36 15 35 16L28 20C27 23 24 26 20 26C16 26 13 23 12 20L5 16C4 15 4 13 5 12L12 8C13 5 16 2 20 2Z" fill="#0D9488" stroke="#0F172A" stroke-width="1"/>
  
  <!-- Barre horizontale (tige du babyfoot) -->
  <rect x="8" y="18" width="24" height="2" fill="#38BDF8"/>
  
  <!-- Corps du joueur -->
  <rect x="16" y="12" width="8" height="8" fill="white" rx="1"/>
  
  <!-- Lettre Y sur le corps -->
  <path d="M18 14H20V16H22V18H20V16H18V18H16V16H18V14Z" fill="#0F172A"/>
  <path d="M18 16H20V18H18V16Z" fill="#0F172A"/>
  <path d="M20 16H22V18H20V16Z" fill="#0F172A"/>
  
  <!-- Base du joueur -->
  <rect x="18" y="20" width="4" height="2" fill="white" rx="1"/>
  
  <!-- Tête du joueur -->
  <circle cx="20" cy="10" r="2" fill="white"/>
</svg>
